# File created by Blade
# Date/Time:  Mon Sep 22 17:38:34 2014
# Frame Rate: 120.000 fps
#------------------------------------------------------
:FULLY-SPECIFIED
:DEGREES
2527
root 0.344372 37.064342 6.488565 -11.040436 11.761601 9.174746
RightUpLeg 22.112127 -8.512359 -2.268879
RightLeg -6.311760 -0.000000 0.000000
RightFoot -14.367027 -19.881286 10.142211
RightToeBase 9.788570 -0.000000 -0.000000
LeftUpLeg -23.946336 32.573013 12.847217
LeftLeg 85.724020 -0.000000 -0.000000
LeftFoot 20.514522 25.816629 -36.452110
LeftToeBase -6.354335 -0.000000 0.000000
Spine 21.940499 9.307924 5.845679
RightShoulder 5.800851 -14.902194 -19.041630
RightArm 51.082762 -3.836530 61.120094
RightForeArm 26.663086 -0.000000 87.677027
RightHand -1.125402 0.000000 -26.881231
RightHandThumb1 -24.326973 -0.000000 -32.862282
LeftShoulder -26.318969 39.439851 -12.668175
LeftArm 29.839297 0.701499 -68.931345
LeftForeArm 29.470428 0.000000 58.730809
LeftHand -29.510089 0.000000 17.205007
LeftHandThumb1 -26.253704 0.000000 33.147579
Head 17.371260 -0.184378 -10.021695
2528
root 0.352320 37.064777 6.496744 -11.040712 11.777237 9.199251
RightUpLeg 22.125247 -8.514218 -2.302830
RightLeg -6.294638 -0.000000 0.000000
RightFoot -14.398629 -19.920664 10.177815
RightToeBase 9.834542 -0.000000 -0.000000
LeftUpLeg -23.920315 32.841349 13.051441
LeftLeg 85.835149 -0.000000 -0.000000
LeftFoot 20.455564 25.846863 -36.435892
LeftToeBase -6.130465 -0.000000 0.000000
Spine 21.897796 9.299025 5.858755
RightShoulder 5.769987 -14.930180 -19.052674
RightArm 51.007650 -3.703735 61.037217
RightForeArm 26.209249 -0.000000 87.809344
RightHand -0.917881 -0.000000 -27.135764
RightHandThumb1 -24.326973 -0.000000 -32.862282
LeftShoulder -26.372031 39.505600 -12.813671
LeftArm 29.623579 0.516719 -69.074440
LeftForeArm 29.259800 -0.000000 58.096565
LeftHand -29.497770 -0.000000 17.032577
LeftHandThumb1 -26.253704 0.000000 33.147579
Head 17.410717 -0.182742 -10.073152
2529
root 0.358617 37.064422 6.506477 -11.075207 11.844105 9.219085
RightUpLeg 22.181283 -8.548899 -2.338733
RightLeg -6.281642 -0.000000 0.000000
RightFoot -14.425873 -19.964174 10.167080
RightToeBase 9.887920 -0.000000 -0.000000
LeftUpLeg -23.866839 33.054464 13.282344
LeftLeg 85.951707 -0.000000 -0.000000
LeftFoot 20.473493 25.825543 -36.307862
LeftToeBase -5.945068 -0.000000 0.000000
Spine 21.897981 9.234574 5.859547
RightShoulder 5.748281 -14.950180 -19.061139
RightArm 50.940215 -3.528439 60.989358
RightForeArm 25.881227 0.000000 87.955568
RightHand -0.770467 0.000000 -27.206553
RightHandThumb1 -24.326973 -0.000000 -32.862282
LeftShoulder -26.363962 39.499211 -12.873448
LeftArm 29.323081 0.349758 -69.243872
LeftForeArm 29.003219 -0.000000 57.454532
LeftHand -29.394023 -0.000000 17.210039
LeftHandThumb1 -26.253704 0.000000 33.147579
Head 17.416466 -0.177797 -10.100178
2530
root 0.363051 37.064355 6.516005 -11.124855 11.919469 9.224560
RightUpLeg 22.241868 -8.583677 -2.357728
RightLeg -6.253254 -0.000000 0.000000
RightFoot -14.455041 -20.012273 10.186454
RightToeBase 9.977148 -0.000000 -0.000000
LeftUpLeg -23.801324 33.242344 13.544413
LeftLeg 86.077566 -0.000000 -0.000000
LeftFoot 20.469750 25.796075 -36.276469
LeftToeBase -6.228825 -0.000000 0.000000
Spine 21.919501 9.152608 5.874259
RightShoulder 5.736827 -14.919648 -19.075553
RightArm 50.836127 -3.365106 60.969081
RightForeArm 25.628625 -0.000000 88.094822
RightHand -0.627456 -0.000000 -27.170713
RightHandThumb1 -24.326973 -0.000000 -32.862282
LeftShoulder -26.401771 39.562770 -12.985813
LeftArm 29.134697 0.160061 -69.404071
LeftForeArm 28.889292 -0.000000 56.837633
LeftHand -29.515641 -0.000000 16.736654
LeftHandThumb1 -26.253704 0.000000 33.147579
Head 17.403274 -0.180738 -10.139333
2531
root 0.371442 37.065506 6.528684 -11.198565 12.022234 9.246541
RightUpLeg 22.345418 -8.655975 -2.416350
RightLeg -6.233163 -0.000000 0.000000
RightFoot -14.470362 -20.036700 10.187112
RightToeBase 10.011099 -0.000000 -0.000000
LeftUpLeg -23.672825 33.400917 13.806711
LeftLeg 86.178088 -0.000000 -0.000000
LeftFoot 20.485027 25.720345 -36.133924
LeftToeBase -5.613579 -0.000000 0.000000
Spine 21.963594 9.045301 5.876306
RightShoulder 5.705632 -14.930929 -19.105457
RightArm 50.786600 -3.213366 60.909158
RightForeArm 25.483093 -0.000000 88.189143
RightHand -0.272780 -0.000000 -27.153395
RightHandThumb1 -24.326973 -0.000000 -32.862282
LeftShoulder -26.444051 39.631155 -13.066341
LeftArm 29.007399 0.026374 -69.577688
LeftForeArm 28.617206 -0.000000 56.144458
LeftHand -30.174090 -0.000000 16.518537
LeftHandThumb1 -26.253704 0.000000 33.147579
Head 17.400354 -0.183263 -10.182418
2532
root 0.382459 37.067751 6.540669 -11.254238 12.130077 9.299207
RightUpLeg 22.441277 -8.751813 -2.514640
RightLeg -6.220405 -0.000000 0.000000
RightFoot -14.486323 -20.049645 10.161444
RightToeBase 9.994036 -0.000000 -0.000000
LeftUpLeg -23.553325 33.584601 14.028627
LeftLeg 86.255216 -0.000000 -0.000000
LeftFoot 20.486578 25.711144 -35.991341
LeftToeBase -6.090416 -0.000000 0.000000
Spine 21.991865 8.953322 5.848800
RightShoulder 5.673246 -14.948739 -19.123698
RightArm 50.727974 -3.045110 60.904921
RightForeArm 25.262310 0.000000 88.275960
RightHand -0.113167 0.000000 -27.030354
RightHandThumb1 -24.326973 -0.000000 -32.862282
LeftShoulder -26.436028 39.664950 -13.149307
LeftArm 28.733881 -0.160712 -69.746061
LeftForeArm 28.518413 -0.000000 55.594070
LeftHand -29.863094 0.000000 16.083114
LeftHandThumb1 -26.253704 0.000000 33.147579
Head 17.412527 -0.212560 -10.232166
2533
root 0.391716 37.068905 6.554927 -11.310318 12.222167 9.331583
RightUpLeg 22.540476 -8.818085 -2.580943
RightLeg -6.216973 -0.000000 0.000000
RightFoot -14.521508 -20.073432 10.187732
RightToeBase 10.063616 -0.000000 -0.000000
LeftUpLeg -23.399508 33.772623 14.302792
LeftLeg 86.315656 -0.000000 -0.000000
LeftFoot 20.519425 25.665034 -35.841139
LeftToeBase -6.140071 -0.000000 0.000000
Spine 22.007584 8.871630 5.837208
RightShoulder 5.643290 -14.938537 -19.126925
RightArm 50.667775 -2.897564 60.896362
RightForeArm 25.226282 -0.000000 88.326056
RightHand 0.208593 -0.000000 -26.947816
RightHandThumb1 -24.326973 -0.000000 -32.862282
LeftShoulder -26.463426 39.730245 -13.212322
LeftArm 28.537819 -0.258310 -69.897341
LeftForeArm 28.309685 -0.000000 54.921138
LeftHand -28.945815 -0.000000 15.756866
LeftHandThumb1 -26.253704 0.000000 33.147579
Head 17.427046 -0.242591 -10.268956
2534
root 0.400284 37.069927 6.567313 -11.346957 12.347135 9.358254
RightUpLeg 22.625760 -8.934274 -2.651329
RightLeg -6.221413 -0.000000 0.000000
RightFoot -14.547143 -20.074005 10.223024
RightToeBase 10.087707 -0.000000 -0.000000
LeftUpLeg -23.285589 33.934053 14.551378
LeftLeg 86.368969 -0.000000 -0.000000
LeftFoot 20.543007 25.672980 -35.668391
LeftToeBase -6.268995 -0.000000 0.000000
Spine 21.995365 8.775332 5.823774
RightShoulder 5.576079 -14.957919 -19.128117
RightArm 50.646571 -2.788777 60.841123
RightForeArm 25.295584 -0.000000 88.336849
RightHand 0.541414 -0.000000 -26.861322
RightHandThumb1 -24.326973 -0.000000 -32.862282
LeftShoulder -26.493444 39.817734 -13.246696
LeftArm 28.481515 -0.388592 -70.082798
LeftForeArm 28.202211 -0.000000 54.179147
LeftHand -29.236046 -0.000000 15.383827
LeftHandThumb1 -26.253704 0.000000 33.147579
Head 17.459385 -0.291356 -10.300866
2535
root 0.408949 37.070567 6.582008 -11.383839 12.481118 9.396997
RightUpLeg 22.729600 -9.079932 -2.743415
RightLeg -6.246587 -0.000000 0.000000
RightFoot -14.514069 -20.114485 10.139406
RightToeBase 9.979918 -0.000000 -0.000000
LeftUpLeg -23.145708 34.090184 14.802417
LeftLeg 86.400891 -0.000000 -0.000000
LeftFoot 20.576105 25.711320 -35.629659
LeftToeBase -6.382500 -0.000000 0.000000
Spine 21.972412 8.675733 5.777768
RightShoulder 5.526305 -14.996915 -19.117528
RightArm 50.630428 -2.675262 60.758105
RightForeArm 25.341042 -0.000000 88.337665
RightHand 0.899220 -0.000000 -26.804898
RightHandThumb1 -24.326973 -0.000000 -32.862282
LeftShoulder -26.508992 39.863179 -13.272583
LeftArm 28.285230 -0.512193 -70.264323
LeftForeArm 28.179386 0.000000 53.605414
LeftHand -29.064205 -0.000000 14.872805
LeftHandThumb1 -26.253704 0.000000 33.147579
Head 17.516013 -0.365601 -10.299572
